<?xml version="1.0" standalone="no"?>
<svg xmlns:xlink="http://www.w3.org/1999/xlink" id="wave" style="transform:rotate(0deg); transition: 0.3s" viewBox="0 0 1440 130" version="1.1" xmlns="http://www.w3.org/2000/svg"><defs><linearGradient id="sw-gradient-0" x1="0" x2="0" y1="1" y2="0"><stop stop-color="rgba(243, 62, 242.591, 1)" offset="0%"/><stop stop-color="rgba(231, 0, 138, 1)" offset="100%"/></linearGradient></defs><path style="transform:translate(0, 0px); opacity:1" fill="url(#sw-gradient-0)" d="M0,39L80,49.8C160,61,320,82,480,75.8C640,69,800,35,960,17.3C1120,0,1280,0,1440,0C1600,0,1760,0,1920,19.5C2080,39,2240,78,2400,82.3C2560,87,2720,56,2880,47.7C3040,39,3200,52,3360,67.2C3520,82,3680,100,3840,91C4000,82,4160,48,4320,28.2C4480,9,4640,4,4800,10.8C4960,17,5120,35,5280,49.8C5440,65,5600,78,5760,84.5C5920,91,6080,91,6240,88.8C6400,87,6560,82,6720,73.7C6880,65,7040,52,7200,39C7360,26,7520,13,7680,21.7C7840,30,8000,61,8160,67.2C8320,74,8480,56,8640,58.5C8800,61,8960,82,9120,82.3C9280,82,9440,61,9600,52C9760,43,9920,48,10080,54.2C10240,61,10400,69,10560,69.3C10720,69,10880,61,11040,58.5C11200,56,11360,61,11440,62.8L11520,65L11520,130L11440,130C11360,130,11200,130,11040,130C10880,130,10720,130,10560,130C10400,130,10240,130,10080,130C9920,130,9760,130,9600,130C9440,130,9280,130,9120,130C8960,130,8800,130,8640,130C8480,130,8320,130,8160,130C8000,130,7840,130,7680,130C7520,130,7360,130,7200,130C7040,130,6880,130,6720,130C6560,130,6400,130,6240,130C6080,130,5920,130,5760,130C5600,130,5440,130,5280,130C5120,130,4960,130,4800,130C4640,130,4480,130,4320,130C4160,130,4000,130,3840,130C3680,130,3520,130,3360,130C3200,130,3040,130,2880,130C2720,130,2560,130,2400,130C2240,130,2080,130,1920,130C1760,130,1600,130,1440,130C1280,130,1120,130,960,130C800,130,640,130,480,130C320,130,160,130,80,130L0,130Z"/></svg>