<svg width="15pc" height="2pc" xmlns="http://www.w3.org/2000/svg" viewBox="53.37749633789062 25.640000915527345 393.24500732421876 98.71999816894531" style="background: rgba(0, 0, 0, 0);" preserveAspectRatio="xMidYMid"><defs><linearGradient id="editing-gradient-gradient" x1="0" x2="1" y1="0.5" y2="0.5" gradientUnits="objectBoundingBox"><stop offset="0" stop-color="#f0f"></stop><stop offset="1" stop-color="#0ff"></stop></linearGradient></defs><g><g transform="translate(114.07500609755516, 98.25000381469727)"><path d="M11.10 0L0.40 0L6.50-32.85L6.50-32.85Q11.45-33.40 18.68-33.40L18.68-33.40L18.68-33.40Q25.90-33.40 29.25-31.30L29.25-31.30L29.25-31.30Q32.60-29.20 32.60-24.98L32.60-24.98L32.60-24.98Q32.60-20.75 30.43-18.10L30.43-18.10L30.43-18.10Q28.25-15.45 24.50-14.60L24.50-14.60L24.50-14.60Q25.35-10.45 27.30-7.10L27.30-7.10L27.30-7.10Q29.10-3.95 31.20-2.95L31.20-2.95L31.20-2.95Q30.45-0.85 28.93 0.08L28.93 0.08L28.93 0.08Q27.40 1 25.23 1L25.23 1L25.23 1Q23.05 1 21.35-0.28L21.35-0.28L21.35-0.28Q19.65-1.55 18.30-3.90L18.30-3.90L18.30-3.90Q15.45-9 15.15-17.05L15.15-17.05L15.50-17.05L15.50-17.05Q19.20-17.15 21.05-19.07L21.05-19.07L21.05-19.07Q22.90-21 22.90-25.05L22.90-25.05L22.90-25.05Q22.90-30.10 18.65-30.30L18.65-30.30L17.55-30.30L17.55-30.30Q17.10-30.30 16.85-30.25L16.85-30.25L11.10 0ZM55.15-8.45L55.15-8.45L55.15-8.45Q56.40-7.60 56.40-5.73L56.40-5.73L56.40-5.73Q56.40-3.85 55.45-2.65L55.45-2.65L55.45-2.65Q54.50-1.45 52.95-0.65L52.95-0.65L52.95-0.65Q49.75 1 46.30 1L46.30 1L46.30 1Q42.85 1 40.83 0.25L40.83 0.25L40.83 0.25Q38.80-0.50 37.45-1.90L37.45-1.90L37.45-1.90Q34.80-4.55 34.80-9.40L34.80-9.40L34.80-9.40Q34.80-16.95 38.90-21.55L38.90-21.55L38.90-21.55Q43.30-26.50 50.95-26.50L50.95-26.50L50.95-26.50Q55.70-26.50 58.05-24.50L58.05-24.50L58.05-24.50Q59.80-23 59.80-20.55L59.80-20.55L59.80-20.55Q59.80-11.75 44.60-11.75L44.60-11.75L44.60-11.75Q44.40-10.45 44.40-9.35L44.40-9.35L44.40-9.35Q44.40-7.05 45.43-6.18L45.43-6.18L45.43-6.18Q46.45-5.30 48.35-5.30L48.35-5.30L48.35-5.30Q50.25-5.30 52.28-6.18L52.28-6.18L52.28-6.18Q54.30-7.05 55.15-8.45ZM44.95-13.90L44.95-13.90L44.95-13.90Q48.50-13.90 50.55-16.10L50.55-16.10L50.55-16.10Q52.60-18.20 52.60-21.55L52.60-21.55L52.60-21.55Q52.60-22.70 52.18-23.33L52.18-23.33L52.18-23.33Q51.75-23.95 50.90-23.95L50.90-23.95L50.90-23.95Q50.05-23.95 49.33-23.63L49.33-23.63L49.33-23.63Q48.60-23.30 47.85-22.20L47.85-22.20L47.85-22.20Q46.00-19.70 44.95-13.90ZM86.05-20.80L86.05-20.80L86.05-20.80Q86.05-18.70 84.30-17.40L84.30-17.40L84.30-17.40Q82.55-16.10 79.70-16.10L79.70-16.10L79.70-16.10Q78.50-16.10 77.80-16.45L77.80-16.45L77.80-16.45Q78.35-17.75 78.53-19.38L78.53-19.38L78.53-19.38Q78.70-21 78.70-21.45L78.70-21.45L78.70-21.45Q78.70-23.55 77.25-23.55L77.25-23.55L77.25-23.55Q76.25-23.55 75.13-22.30L75.13-22.30L75.13-22.30Q74-21.05 73.05-19.10L73.05-19.10L73.05-19.10Q70.95-14.60 70.95-10.05L70.95-10.05L70.95-10.05Q70.95-7.55 71.90-6.43L71.90-6.43L71.90-6.43Q72.85-5.30 74.95-5.30L74.95-5.30L74.95-5.30Q77.85-5.30 80.15-7.70L80.15-7.70L80.15-7.70Q80.80-8.45 81.15-9.30L81.15-9.30L81.15-9.30Q83.05-8.30 83.05-5.55L83.05-5.55L83.05-5.55Q83.05-2.75 79.95-0.90L79.95-0.90L79.95-0.90Q76.75 1 71.65 1L71.65 1L71.65 1Q61.50 1 61.50-9.75L61.50-9.75L61.50-9.75Q61.50-17.60 65.95-22.10L65.95-22.10L65.95-22.10Q70.25-26.50 78.15-26.50L78.15-26.50L78.15-26.50Q86.05-26.50 86.05-20.80ZM99.40-2.75L99.40-2.75L99.40-2.75Q97.85 1 92.90 1L92.90 1L92.90 1Q90.35 1 88.75-0.75L88.75-0.75L88.75-0.75Q87.40-2.30 87.40-3.85L87.40-3.85L87.40-3.85Q87.40-7.90 89.25-15.80L89.25-15.80L91.10-25.50L101.25-26.50L98.20-10.70L98.20-10.70Q97.35-7 97.35-5.70L97.35-5.70L97.35-5.70Q97.35-2.85 99.40-2.75ZM92.00-32.45L92.00-32.45L92.00-32.45Q92.00-34.40 93.63-35.45L93.63-35.45L93.63-35.45Q95.25-36.50 97.60-36.50L97.60-36.50L97.60-36.50Q99.95-36.50 101.38-35.45L101.38-35.45L101.38-35.45Q102.80-34.40 102.80-32.45L102.80-32.45L102.80-32.45Q102.80-30.50 101.23-29.50L101.23-29.50L101.23-29.50Q99.65-28.50 97.30-28.50L97.30-28.50L97.30-28.50Q94.95-28.50 93.48-29.50L93.48-29.50L93.48-29.50Q92.00-30.50 92.00-32.45ZM126.95-3.43L126.95-3.43L126.95-3.43Q124.85-1.30 121.98-0.15L121.98-0.15L121.98-0.15Q119.10 1 116.25 1L116.25 1L116.25 1Q113.40 1 112.40 0.50L112.40 0.50L110.85 9L100.70 10L107.60-25.50L115.75-26.35L115.10-22.90L115.10-22.90Q117.20-26.45 121.55-26.45L121.55-26.45L121.55-26.45Q126.45-26.45 129.05-23.30L129.05-23.30L129.05-23.30Q131.35-20.45 131.35-16.10L131.35-16.10L131.35-16.10Q131.35-11.75 130.20-8.65L130.20-8.65L130.20-8.65Q129.05-5.55 126.95-3.43ZM115.65-17.45L113.00-2.80L113.00-2.80Q114.05-1.90 115.35-1.90L115.35-1.90L115.35-1.90Q116.65-1.90 117.40-2.40L117.40-2.40L117.40-2.40Q118.15-2.90 118.70-3.90L118.70-3.90L118.70-3.90Q120.20-6.60 121.40-14.80L121.40-14.80L121.40-14.80Q121.75-17.20 121.75-19.55L121.75-19.55L121.75-19.55Q121.75-21.90 121.23-22.65L121.23-22.65L121.23-22.65Q120.70-23.40 119.70-23.40L119.70-23.40L119.70-23.40Q116.65-23.40 115.65-17.45L115.65-17.45ZM154.60-8.45L154.60-8.45L154.60-8.45Q155.85-7.60 155.85-5.73L155.85-5.73L155.85-5.73Q155.85-3.85 154.90-2.65L154.90-2.65L154.90-2.65Q153.95-1.45 152.40-0.65L152.40-0.65L152.40-0.65Q149.20 1 145.75 1L145.75 1L145.75 1Q142.30 1 140.28 0.25L140.28 0.25L140.28 0.25Q138.25-0.50 136.90-1.90L136.90-1.90L136.90-1.90Q134.25-4.55 134.25-9.40L134.25-9.40L134.25-9.40Q134.25-16.95 138.35-21.55L138.35-21.55L138.35-21.55Q142.75-26.50 150.40-26.50L150.40-26.50L150.40-26.50Q155.15-26.50 157.50-24.50L157.50-24.50L157.50-24.50Q159.25-23 159.25-20.55L159.25-20.55L159.25-20.55Q159.25-11.75 144.05-11.75L144.05-11.75L144.05-11.75Q143.85-10.45 143.85-9.35L143.85-9.35L143.85-9.35Q143.85-7.05 144.88-6.18L144.88-6.18L144.88-6.18Q145.90-5.30 147.80-5.30L147.80-5.30L147.80-5.30Q149.70-5.30 151.72-6.18L151.72-6.18L151.72-6.18Q153.75-7.05 154.60-8.45ZM144.40-13.90L144.40-13.90L144.40-13.90Q147.95-13.90 150-16.10L150-16.10L150-16.10Q152.05-18.20 152.05-21.55L152.05-21.55L152.05-21.55Q152.05-22.70 151.63-23.33L151.63-23.33L151.63-23.33Q151.20-23.95 150.35-23.95L150.35-23.95L150.35-23.95Q149.50-23.95 148.78-23.63L148.78-23.63L148.78-23.63Q148.05-23.30 147.30-22.20L147.30-22.20L147.30-22.20Q145.45-19.70 144.40-13.90ZM159.45-2.95L159.45-2.95L159.45-2.95Q159.45-4.85 160.92-5.90L160.92-5.90L160.92-5.90Q162.40-6.95 164.50-6.95L164.50-6.95L164.50-6.95Q166.60-6.95 167.88-5.90L167.88-5.90L167.88-5.90Q169.15-4.85 169.15-2.95L169.15-2.95L169.15-2.95Q169.15-1.05 167.72-0.03L167.72-0.03L167.72-0.03Q166.30 1 164.20 1L164.20 1L164.20 1Q162.10 1 160.78-0.03L160.78-0.03L160.78-0.03Q159.45-1.05 159.45-2.95ZM198.35-20.80L198.35-20.80L198.35-20.80Q198.35-18.70 196.60-17.40L196.60-17.40L196.60-17.40Q194.85-16.10 192-16.10L192-16.10L192-16.10Q190.80-16.10 190.10-16.45L190.10-16.45L190.10-16.45Q190.65-17.75 190.82-19.38L190.82-19.38L190.82-19.38Q191-21 191-21.45L191-21.45L191-21.45Q191-23.55 189.55-23.55L189.55-23.55L189.55-23.55Q188.55-23.55 187.42-22.30L187.42-22.30L187.42-22.30Q186.30-21.05 185.35-19.10L185.35-19.10L185.35-19.10Q183.25-14.60 183.25-10.05L183.25-10.05L183.25-10.05Q183.25-7.55 184.20-6.43L184.20-6.43L184.20-6.43Q185.15-5.30 187.25-5.30L187.25-5.30L187.25-5.30Q190.15-5.30 192.45-7.70L192.45-7.70L192.45-7.70Q193.10-8.45 193.45-9.30L193.45-9.30L193.45-9.30Q195.35-8.30 195.35-5.55L195.35-5.55L195.35-5.55Q195.35-2.75 192.25-0.90L192.25-0.90L192.25-0.90Q189.05 1 183.95 1L183.95 1L183.95 1Q173.80 1 173.80-9.75L173.80-9.75L173.80-9.75Q173.80-17.60 178.25-22.10L178.25-22.10L178.25-22.10Q182.55-26.50 190.45-26.50L190.45-26.50L190.45-26.50Q198.35-26.50 198.35-20.80ZM210.60 1L210.60 1L210.60 1Q199.60 1 199.60-9.35L199.60-9.35L199.60-9.35Q199.60-16.70 203.65-21.45L203.65-21.45L203.65-21.45Q207.95-26.50 215.40-26.50L215.40-26.50L215.40-26.50Q220.80-26.50 223.55-24L223.55-24L223.55-24Q226.30-21.50 226.30-16.25L226.30-16.25L226.30-16.25Q226.30-8.25 222-3.60L222-3.60L222-3.60Q217.80 1 210.60 1ZM211.90-20.75L211.90-20.75L211.90-20.75Q211.30-19.40 210.82-17.38L210.82-17.38L210.82-17.38Q210.35-15.35 209.75-12.15L209.75-12.15L209.75-12.15Q209.15-8.95 209.15-5L209.15-5L209.15-5Q209.15-3.70 209.57-2.85L209.57-2.85L209.57-2.85Q210-2 211.15-2L211.15-2L211.15-2Q212.30-2 213.03-2.55L213.03-2.55L213.03-2.55Q213.75-3.10 214.30-4.40L214.30-4.40L214.30-4.40Q215.30-6.70 216.10-10.98L216.10-10.98L216.10-10.98Q216.90-15.25 216.97-17.10L216.97-17.10L216.97-17.10Q217.05-18.95 217.05-20.33L217.05-20.33L217.05-20.33Q217.05-21.70 216.65-22.60L216.65-22.60L216.65-22.60Q216.25-23.50 215.13-23.50L215.13-23.50L215.13-23.50Q214-23.50 213.25-22.80L213.25-22.80L213.25-22.80Q212.50-22.10 211.90-20.75ZM265.25 1L265.25 1L265.25 1Q259.20 1 259.20-3.70L259.20-3.70L259.20-3.70Q259.20-5.75 260.07-9.73L260.07-9.73L260.07-9.73Q260.95-13.70 261.25-15.30L261.25-15.30L261.25-15.30Q261.95-18.95 261.95-20.10L261.95-20.10L261.95-20.10Q261.95-22.65 260.05-22.65L260.05-22.65L260.05-22.65Q258.80-22.65 257.60-20.93L257.60-20.93L257.60-20.93Q256.40-19.20 255.85-15.75L255.85-15.75L252.75 0L243 1L245.70-12.60L245.70-12.60Q246.15-14.85 246.55-17.40L246.55-17.40L246.55-17.40Q246.95-19.95 246.95-20.35L246.95-20.35L246.95-20.35Q246.95-22.65 245.25-22.65L245.25-22.65L245.25-22.65Q244.10-22.65 242.85-20.95L242.85-20.95L242.85-20.95Q241.60-19.25 240.90-15.75L240.90-15.75L237.85 0L228 1L233.25-25.50L241.40-26.50L240.55-21.45L240.55-21.45Q241.85-24.15 244.25-25.33L244.25-25.33L244.25-25.33Q246.65-26.50 250.40-26.50L250.40-26.50L250.40-26.50Q252.55-26.50 253.95-25.45L253.95-25.45L253.95-25.45Q255.35-24.40 255.80-22.70L255.80-22.70L255.80-22.70Q256.65-24.45 258.82-25.48L258.82-25.48L258.82-25.48Q261-26.50 263.68-26.50L263.68-26.50L263.68-26.50Q266.35-26.50 267.68-25.93L267.68-25.93L267.68-25.93Q269-25.35 269.80-24.40L269.80-24.40L269.80-24.40Q271.15-22.65 271.15-19.45L271.15-19.45L271.15-19.45Q271.15-16.30 269.80-9.75L269.80-9.75L269.80-9.75Q269.10-6.55 269.10-5.38L269.10-5.38L269.10-5.38Q269.10-4.20 269.77-3.50L269.77-3.50L269.77-3.50Q270.45-2.80 271.45-2.70L271.45-2.70L271.45-2.70Q270.95-1 269.23 0L269.23 0L269.23 0Q267.50 1 265.25 1Z" fill="url(#editing-gradient-gradient)"></path></g></g><style>text {
  font-size: 20px;
  font-family: Arial Black;
  dominant-baseline: central;
  text-anchor: middle;
}</style></svg>