<svg width="100px" height="100px" xmlns="http://www.w3.org/2000/svg" viewBox="229.32749977111817 47.71999931335449 41.345000457763675 54.560001373291016" style="background: rgba(0, 0, 0, 0);" preserveAspectRatio="xMidYMid"><defs><filter id="editing-extrude-glow"><feFlood flood-color="#333333" result="flood-1"></feFlood><feMorphology operator="erode" radius="1" in="SourceAlpha" result="erode"></feMorphology><feComposite operator="in" in="flood-1" in2="erode" result="comp1"></feComposite><feConvolveMatrix order="3,3" divisor="1" in="comp1" result="convolve" kernelMatrix="0 0 0 1 1 1 0 0 0"></feConvolveMatrix><feOffset dx="-3" dy="0" in="convolve" result="extrude"></feOffset><feComposite operator="in" in="flood-1" in2="extrude" result="comp-extrude"></feComposite><feFlood flood-color="#000000" result="flood-2"></feFlood><feComposite operator="in" in="flood-2" in2="SourceAlpha" result="comp2"></feComposite><feMorphology operator="dilate" radius="1" in="comp2" result="dilate"></feMorphology><feOffset dx="-4.5" dy="0" in="dilate" result="offset"></feOffset><feGaussianBlur in="offset" stdDeviation="5.8" result="blur"></feGaussianBlur><feComponentTransfer in="blur" result="shadow"><feFuncA type="linear" slope="0.8" intercept="-0.2"></feFuncA></feComponentTransfer><feMerge><feMergeNode in="shadow"></feMergeNode><feMergeNode in="comp-extrude"></feMergeNode><feMergeNode in="SourceGraphic"></feMergeNode></feMerge></filter></defs><g filter="url(#editing-extrude-glow)"><g transform="translate(242.3870638012886, 82.57000350952148)"><path d="M4.88 0L0.18 0L2.86-14.45L2.86-14.45Q5.04-14.70 8.22-14.70L8.22-14.70L8.22-14.70Q11.40-14.70 12.87-13.77L12.87-13.77L12.87-13.77Q14.34-12.85 14.34-10.99L14.34-10.99L14.34-10.99Q14.34-9.13 13.39-7.96L13.39-7.96L13.39-7.96Q12.43-6.80 10.78-6.42L10.78-6.42L10.78-6.42Q11.15-4.60 12.01-3.12L12.01-3.12L12.01-3.12Q12.80-1.74 13.73-1.30L13.73-1.30L13.73-1.30Q13.40-0.37 12.73 0.03L12.73 0.03L12.73 0.03Q12.06 0.44 11.10 0.44L11.10 0.44L11.10 0.44Q10.14 0.44 9.39-0.12L9.39-0.12L9.39-0.12Q8.65-0.68 8.05-1.72L8.05-1.72L8.05-1.72Q6.80-3.96 6.67-7.50L6.67-7.50L6.82-7.50L6.82-7.50Q8.45-7.55 9.26-8.39L9.26-8.39L9.26-8.39Q10.08-9.24 10.08-11.02L10.08-11.02L10.08-11.02Q10.08-13.24 8.21-13.33L8.21-13.33L7.72-13.33L7.72-13.33Q7.52-13.33 7.41-13.31L7.41-13.31L4.88 0Z" fill="#eb6c6c"></path></g></g><style>text {
  font-size: 64px;
  font-family: Arial Black;
  dominant-baseline: central;
  text-anchor: middle;
}</style></svg>