<?xml version="1.0" standalone="no"?><svg xmlns="http://www.w3.org/2000/svg" viewBox="0 0 1440 320"><path fill="#e7008a" fill-opacity="1" d="M0,32L20,48C40,64,80,96,120,133.3C160,171,200,213,240,208C280,203,320,149,360,138.7C400,128,440,160,480,154.7C520,149,560,107,600,80C640,53,680,43,720,48C760,53,800,75,840,74.7C880,75,920,53,960,42.7C1000,32,1040,32,1080,32C1120,32,1160,32,1200,69.3C1240,107,1280,181,1320,224C1360,267,1400,277,1420,282.7L1440,288L1440,0L1420,0C1400,0,1360,0,1320,0C1280,0,1240,0,1200,0C1160,0,1120,0,1080,0C1040,0,1000,0,960,0C920,0,880,0,840,0C800,0,760,0,720,0C680,0,640,0,600,0C560,0,520,0,480,0C440,0,400,0,360,0C320,0,280,0,240,0C200,0,160,0,120,0C80,0,40,0,20,0L0,0Z"></path></svg>